<svg xmlns="http://www.w3.org/2000/svg" version="1.1" xmlns:xlink="http://www.w3.org/1999/xlink" xmlns:svgjs="http://svgjs.dev/svgjs" width="2000" height="1247" viewBox="0 0 2000 1247"><g transform="matrix(1,0,0,1,-1.2121212121212466,0.5048582995951847)"><svg viewBox="0 0 396 247" data-background-color="#2d1b81" preserveAspectRatio="xMidYMid meet" height="1247" width="2000" xmlns="http://www.w3.org/2000/svg" xmlns:xlink="http://www.w3.org/1999/xlink"><g id="tight-bounds" transform="matrix(1,0,0,1,0.2400000000000091,-0.09999999999999432)"><svg viewBox="0 0 395.52 247.2" height="247.2" width="395.52"><g><svg></svg></g><g><svg viewBox="0 0 395.52 247.2" height="247.2" width="395.52"><g transform="matrix(1,0,0,1,75.54432,50.31012800646988)"><svg viewBox="0 0 244.43135999999998 146.57974398706023" height="146.57974398706023" width="244.43135999999998"><g><svg viewBox="0 0 244.43135999999998 146.57974398706023" height="146.57974398706023" width="244.43135999999998"><g><svg viewBox="0 0 244.43135999999998 146.57974398706023" height="146.57974398706023" width="244.43135999999998"><g><svg viewBox="0 0 244.43135999999998 146.57974398706023" height="146.57974398706023" width="244.43135999999998"><g id="textblocktransform"><svg viewBox="0 0 244.43135999999998 146.57974398706023" height="146.57974398706023" width="244.43135999999998" id="textblock"><g><svg viewBox="0 0 244.43135999999998 146.57974398706023" height="146.57974398706023" width="244.43135999999998"><g transform="matrix(1,0,0,1,0,0)"><svg width="244.43135999999998" viewBox="-0.22 -34.86 60.37 36.2" height="146.57974398706023" data-palette-color="#ffabc7"><path d="M28.96-34.81L28.96-34.81Q29.96-34.81 29.96-33.76L29.96-33.76Q29.96-33.23 29.63-32.53 29.3-31.84 29.1-31.4L29.1-31.4 15.84 1.34-0.22-34.55 13.11-34.55 20.87-16.28 26.32-29.91Q27.2-32.1 27.47-33.08 27.73-34.06 28.05-34.44 28.37-34.81 28.96-34.81ZM60.15-33.91L60.15-33.91Q60.15-32.79 57.79-32.79L57.79-32.79 52.12-32.79 52.12 0 39.62 0 39.62-32.79 35.96-32.79Q34.08-32.79 33.37-32.62L33.37-32.62Q32.44-32.42 32.03-32.42L32.03-32.42Q30.78-32.42 30.78-33.4L30.78-33.4Q30.78-34.55 33.2-34.55L33.2-34.55 54.98-34.55Q56.66-34.55 57.47-34.69L57.47-34.69Q58.44-34.86 58.93-34.86L58.93-34.86Q60.15-34.86 60.15-33.91Z" opacity="1" transform="matrix(1,0,0,1,0,0)" fill="#ffabc7" class="wordmark-text-0" data-fill-palette-color="primary" id="text-0"></path></svg></g></svg></g></svg></g></svg></g></svg></g></svg></g></svg></g><g><path d="M245.816 0c68.262 0 123.6 55.338 123.6 123.6 0 68.262-55.338 123.6-123.6 123.6-32.476 0-62.026-12.525-84.085-33.008l10.053 0c20.166 16.5 45.943 26.399 74.032 26.399 64.612 0 116.991-52.379 116.99-116.991 0-64.612-52.379-116.991-116.99-116.991-28.089 0-53.866 9.899-74.032 26.399l-10.053 0c22.058-20.483 51.609-33.008 84.085-33.008z" fill="#ffabc7" stroke="transparent" data-fill-palette-color="tertiary"></path></g></svg></g><defs></defs></svg><rect width="395.52" height="247.2" fill="none" stroke="none" visibility="hidden"></rect></g></svg></g></svg>