<svg xmlns="http://www.w3.org/2000/svg" xmlns:xlink="http://www.w3.org/1999/xlink" viewBox="0,0,256,256" width="30px" height="30px"><g fill="#a681c7" fill-rule="nonzero" stroke="none" stroke-width="1" stroke-linecap="butt" stroke-linejoin="miter" stroke-miterlimit="10" stroke-dasharray="" stroke-dashoffset="0" font-family="none" font-weight="none" font-size="none" text-anchor="none" style="mix-blend-mode: normal"><g transform="scale(5.12,5.12)"><path d="M17,3c-0.9375,0 -1.88281,0.3125 -2.65625,0.96875c-0.77344,0.65625 -1.34375,1.70703 -1.34375,2.9375v21.53125c-0.44141,0.16016 -0.84375,0.20703 -1.65625,0.90625c-1.17578,1.01563 -2.34375,2.83984 -2.34375,5.5625c0,1.97266 0.78516,3.77734 1.09375,4.5c0,0.01172 0,0.01953 0,0.03125l2.8125,5.59375c0.00391,0.00781 -0.00391,0.02344 0,0.03125c1.47656,3.04297 4.63281,4.9375 8,4.9375h9.09375c4.94531,0 9,-4.05469 9,-9v-16c0,-0.82031 -0.12891,-1.94922 -0.6875,-3c-0.55859,-1.05078 -1.71484,-2 -3.3125,-2c-1.09375,0 -1.90625,0.375 -2.5625,0.875c-0.10937,-0.30078 -0.16406,-0.63672 -0.3125,-0.90625c-0.62109,-1.12109 -1.75781,-1.96875 -3.125,-1.96875c-1.11719,0 -1.99219,0.40625 -2.65625,0.96875c-0.66406,-1.09766 -1.78516,-1.96875 -3.34375,-1.96875c-0.78125,0 -1.42578,0.24609 -2,0.59375v-10.59375c0,-1.26562 -0.53906,-2.32422 -1.3125,-3c-0.77344,-0.67578 -1.75,-1 -2.6875,-1zM17,5c0.46094,0 1,0.17578 1.375,0.5c0.375,0.32422 0.625,0.76563 0.625,1.5v16h2v-2c0,-0.875 0.66016,-2 2,-2c1.33984,0 2,1.125 2,2v1c0.00781,0.54688 0.45313,0.98438 1,0.98438c0.54688,0 0.99219,-0.4375 1,-0.98437c0,-0.53516 0.13281,-1.06641 0.40625,-1.40625c0.27344,-0.33984 0.67578,-0.59375 1.59375,-0.59375c0.63281,0 0.99609,0.25781 1.375,0.9375c0.37891,0.67969 0.625,1.78125 0.625,3.0625h2c0,-0.58203 0.10547,-1.08984 0.34375,-1.40625c0.23828,-0.31641 0.62109,-0.59375 1.65625,-0.59375c0.90234,0 1.24609,0.33984 1.5625,0.9375c0.31641,0.59766 0.4375,1.48047 0.4375,2.0625v16c0,3.85547 -3.14453,7 -7,7h-9.09375c-2.62109,0 -5.08984,-1.5 -6.21875,-3.84375l-2.78125,-5.5625c-0.00391,-0.00781 0.00391,-0.02344 0,-0.03125c-0.29297,-0.6875 -0.90625,-2.24219 -0.90625,-3.65625c0,-2.17969 0.83203,-3.32031 1.65625,-4.03125c0.82422,-0.71094 1.59375,-0.90625 1.59375,-0.90625c0.44141,-0.11328 0.75,-0.51172 0.75,-0.96875v-22.09375c0,-0.66797 0.25,-1.08594 0.625,-1.40625c0.375,-0.32031 0.91406,-0.5 1.375,-0.5zM21.90625,29.96875c-0.04297,0.00781 -0.08594,0.01953 -0.125,0.03125c-0.46484,0.10547 -0.79297,0.52344 -0.78125,1v9c-0.00391,0.35938 0.18359,0.69531 0.49609,0.87891c0.3125,0.17969 0.69531,0.17969 1.00781,0c0.3125,-0.18359 0.5,-0.51953 0.49609,-0.87891v-9c0.01172,-0.28906 -0.10547,-0.56641 -0.3125,-0.76172c-0.21094,-0.19922 -0.49609,-0.29687 -0.78125,-0.26953zM26.90625,29.96875c-0.04297,0.00781 -0.08594,0.01953 -0.125,0.03125c-0.46484,0.10547 -0.79297,0.52344 -0.78125,1v9c-0.00391,0.35938 0.18359,0.69531 0.49609,0.87891c0.3125,0.17969 0.69531,0.17969 1.00781,0c0.3125,-0.18359 0.5,-0.51953 0.49609,-0.87891v-9c0.01172,-0.28906 -0.10547,-0.56641 -0.3125,-0.76172c-0.21094,-0.19922 -0.49609,-0.29687 -0.78125,-0.26953zM31.90625,29.96875c-0.04297,0.00781 -0.08594,0.01953 -0.125,0.03125c-0.46484,0.10547 -0.79297,0.52344 -0.78125,1v9c-0.00391,0.35938 0.18359,0.69531 0.49609,0.87891c0.3125,0.17969 0.69531,0.17969 1.00781,0c0.3125,-0.18359 0.5,-0.51953 0.49609,-0.87891v-9c0.01172,-0.28906 -0.10547,-0.56641 -0.3125,-0.76172c-0.21094,-0.19922 -0.49609,-0.29687 -0.78125,-0.26953z"></path></g></g></svg>